<svg xmlns="http://www.w3.org/2000/svg" viewBox="0 0 32 32" width="32" height="32">
  <circle cx="16" cy="16" r="14" fill="none" stroke="#6366f1" stroke-width="2"/>
  <g fill="#6366f1">
    <path d="M16 4 a12 12 0 0 1 10.39 6 L16 16 Z" opacity="0.9"/>
    <path d="M26.39 10 a12 12 0 0 1 0 12 L16 16 Z" opacity="0.7"/>
    <path d="M26.39 22 a12 12 0 0 1 -10.39 6 L16 16 Z" opacity="0.55"/>
    <path d="M16 28 a12 12 0 0 1 -10.39 -6 L16 16 Z" opacity="0.7"/>
    <path d="M5.61 22 a12 12 0 0 1 0 -12 L16 16 Z" opacity="0.85"/>
    <path d="M5.61 10 a12 12 0 0 1 10.39 -6 L16 16 Z" opacity="0.6"/>
  </g>
  <circle cx="16" cy="16" r="4" fill="#fff"/>
  <circle cx="16" cy="16" r="3" fill="#6366f1"/>
</svg>
